<svg xmlns="http://www.w3.org/2000/svg" viewBox="0 0 378.14 393.05"><defs><style>.cls-1{fill:#1d1d1b;}.cls-2{fill:#fff;}.cls-3{fill:#231f20;}</style></defs><title>Asset 9</title><g id="Layer_2" data-name="Layer 2"><g id="Layer_1-2" data-name="Layer 1"><path class="cls-1" d="M106.22,188.66v179a25.47,25.47,0,0,1-25.39,25.39H25.38A25.46,25.46,0,0,1,0,367.66v-179A44,44,0,0,1,18.3,153L35.14,32.43H33.33A6.35,6.35,0,0,1,27,25.6a6.26,6.26,0,0,1,.84-2.67l3.28-5.69H28.87a3.75,3.75,0,0,1-3.25-5.63l5.09-8.83A5.58,5.58,0,0,1,35.53,0H70.69a5.57,5.57,0,0,1,4.82,2.78l5.09,8.83a3.75,3.75,0,0,1-3.25,5.63H75.08l3.28,5.69a6.26,6.26,0,0,1,.84,2.67,6.34,6.34,0,0,1-5.9,6.81L88.16,153.19A44,44,0,0,1,106.22,188.66Z"/><path class="cls-2" d="M39.76,35.11h6.61L37.78,145s-6.17,1.54-7,2.64S39.76,35.11,39.76,35.11Z"/><path class="cls-2" d="M20.67,386.55s-11-5.72-11.45-11.89.44-167.56.44-190,26-33.47,36.55-33.47c2.42,0-24.22,13.22-24.22,31.93S20.67,386.55,20.67,386.55Z"/><path class="cls-3" d="M125.63,170.86H152q15.42,0,22.89,4.58t7.48,14.25a18,18,0,0,1-3.26,10.87,14.53,14.53,0,0,1-8.59,5.79v.52q7,1.86,10.19,6.21t3.16,11.28q0,10.29-7.73,16.22t-21.09,5.92H125.63Zm20.43,29h6.16a11.16,11.16,0,0,0,6.8-1.81,6.32,6.32,0,0,0,2.41-5.38q0-6.37-9.63-6.37h-5.74Zm0,15v15.88h7.19q9.57,0,9.57-8.07a6.92,6.92,0,0,0-2.56-5.79c-1.7-1.35-4.18-2-7.42-2Z"/><path class="cls-3" d="M241.93,246.5H197V170.86h44.91v16.4H217.45v11.9h22.67v16.4H217.45v14.28h24.48Z"/><path class="cls-3" d="M300.08,246.5H255.17V170.86h44.91v16.4H275.61v11.9h22.66v16.4H275.61v14.28h24.47Z"/><path class="cls-3" d="M333.75,219V246.5H313.32V170.86H338.1q30.84,0,30.83,22.35,0,13.14-12.83,20.33l22,33H355l-16-27.52Zm0-15.37h3.83q10.71,0,10.71-9.47,0-7.8-10.5-7.81h-4Z"/><path class="cls-3" d="M158.58,343.64l-15.47-54.47h-.46q1.08,13.9,1.08,21.62v32.85h-18.1V268h27.21l15.78,53.7H169L184.5,268h27.26v75.63H193V310.48c0-1.72,0-3.64.08-5.74s.29-7.26.7-15.47h-.47L178,343.64Z"/><path class="cls-3" d="M273,343.64H228.06V268H273v16.4H248.5v11.9h22.66v16.4H248.5V327H273Z"/><path class="cls-3" d="M302,317H284.92L282.28,268h22.35Zm-19.5,18.1a9.56,9.56,0,0,1,2.79-7.32q2.79-2.61,8.12-2.61t8,2.61a9.71,9.71,0,0,1,2.72,7.32,9.41,9.41,0,0,1-2.82,7.27c-1.88,1.74-4.51,2.62-7.89,2.62s-6.09-.88-8-2.62A9.28,9.28,0,0,1,282.49,335.05Z"/></g></g></svg>